# This file uses centimeters as units for non-parametric coordinates.

mtllib VRAsset_HiddenPipe_Fixed.mtl
g default
v 3.706175 -1.263361 3.460630
v 4.706175 -1.263361 3.460630
v 3.706175 2.706296 3.460630
v 4.706175 2.706296 3.460630
v 3.706175 2.706296 2.460630
v 4.706175 2.706296 2.460630
v 3.706175 -1.263361 2.460630
v 4.706175 -1.263361 2.460630
v 4.206175 0.721467 3.650255
v 4.206175 -1.263361 3.650255
v 4.706175 0.721467 3.460630
v 4.206175 2.706296 3.650255
v 3.706175 0.721467 3.460630
v 4.895801 2.706296 2.960630
v 4.206175 2.706296 2.271004
v 3.516549 2.706296 2.960630
v 4.206175 0.721467 2.271004
v 4.706175 0.721467 2.460630
v 4.206175 -1.263361 2.271004
v 3.706175 0.721467 2.460630
v 4.895801 -1.263361 2.960630
v 3.516549 -1.263361 2.960630
v 4.895801 0.721467 2.960630
v 3.516549 0.721467 2.960630
vt 0.375000 0.000000
vt 0.625000 0.000000
vt 0.375000 0.250000
vt 0.625000 0.250000
vt 0.375000 0.500000
vt 0.625000 0.500000
vt 0.375000 0.750000
vt 0.625000 0.750000
vt 0.875000 0.000000
vt 0.875000 0.250000
vt 0.125000 0.000000
vt 0.125000 0.250000
vt 0.500000 0.125000
vt 0.500000 0.000000
vt 0.625000 0.125000
vt 0.500000 0.250000
vt 0.375000 0.125000
vt 0.500000 0.500000
vt 0.500000 0.625000
vt 0.625000 0.625000
vt 0.500000 0.750000
vt 0.375000 0.625000
vt 0.750000 0.125000
vt 0.750000 0.000000
vt 0.875000 0.125000
vt 0.750000 0.250000
vt 0.250000 0.125000
vt 0.250000 0.000000
vt 0.250000 0.250000
vt 0.125000 0.125000
vn -0.354606 0.000000 0.935016
vn -0.354606 0.000000 0.935016
vn -0.354606 0.000000 0.935016
vn -0.354606 0.000000 0.935016
vn -0.354606 0.000000 -0.935016
vn -0.354606 0.000000 -0.935016
vn -0.354606 0.000000 -0.935016
vn -0.354606 0.000000 -0.935016
vn 0.935016 0.000000 0.354606
vn 0.935016 0.000000 0.354606
vn 0.935016 0.000000 0.354606
vn 0.935016 0.000000 0.354606
vn -0.935016 0.000000 -0.354606
vn -0.935016 0.000000 -0.354606
vn -0.935016 0.000000 -0.354606
vn -0.935016 0.000000 -0.354606
vn 0.354606 0.000000 0.935016
vn 0.354606 0.000000 0.935016
vn 0.354606 0.000000 0.935016
vn 0.354606 0.000000 0.935016
vn 0.354606 0.000000 0.935016
vn 0.354606 0.000000 0.935016
vn 0.354606 0.000000 0.935016
vn 0.354606 0.000000 0.935016
vn -0.354606 0.000000 0.935016
vn -0.354606 0.000000 0.935016
vn -0.354606 0.000000 0.935016
vn -0.354606 0.000000 0.935016
vn 0.354606 0.000000 -0.935016
vn 0.354606 0.000000 -0.935016
vn 0.354606 0.000000 -0.935016
vn 0.354606 0.000000 -0.935016
vn 0.354605 0.000000 -0.935016
vn 0.354605 0.000000 -0.935016
vn 0.354605 0.000000 -0.935016
vn 0.354605 0.000000 -0.935016
vn -0.354605 0.000000 -0.935016
vn -0.354605 0.000000 -0.935016
vn -0.354605 0.000000 -0.935016
vn -0.354605 0.000000 -0.935016
vn 0.935016 0.000000 -0.354606
vn 0.935016 0.000000 -0.354606
vn 0.935016 0.000000 -0.354606
vn 0.935016 0.000000 -0.354606
vn 0.935016 0.000000 -0.354606
vn 0.935016 0.000000 -0.354606
vn 0.935016 0.000000 -0.354606
vn 0.935016 0.000000 -0.354606
vn 0.935016 0.000000 0.354606
vn 0.935016 0.000000 0.354606
vn 0.935016 0.000000 0.354606
vn 0.935016 0.000000 0.354606
vn -0.935016 0.000000 0.354606
vn -0.935016 0.000000 0.354606
vn -0.935016 0.000000 0.354606
vn -0.935016 0.000000 0.354606
vn -0.935016 0.000000 0.354606
vn -0.935016 0.000000 0.354606
vn -0.935016 0.000000 0.354606
vn -0.935016 0.000000 0.354606
vn -0.935016 0.000000 -0.354606
vn -0.935016 0.000000 -0.354606
vn -0.935016 0.000000 -0.354606
vn -0.935016 0.000000 -0.354606
s off
g HiddenPipe_Fixed
usemtl initialShadingGroup
f 13/17/1 1/1/2 10/14/3 9/13/4
f 20/22/5 5/5/6 15/18/7 17/19/8
f 11/15/9 2/2/10 21/24/11 23/23/12
f 20/30/13 7/11/14 22/28/15 24/27/16
f 10/14/17 2/2/18 11/15/19 9/13/20
f 11/15/21 4/4/22 12/16/23 9/13/24
f 12/16/25 3/3/26 13/17/27 9/13/28
f 15/18/29 6/6/30 18/20/31 17/19/32
f 18/20/33 8/8/34 19/21/35 17/19/36
f 19/21/37 7/7/38 20/22/39 17/19/40
f 21/24/41 8/9/42 18/25/43 23/23/44
f 18/25/45 6/10/46 14/26/47 23/23/48
f 14/26/49 4/4/50 11/15/51 23/23/52
f 22/28/53 1/1/54 13/17/55 24/27/56
f 13/17/57 3/3/58 16/29/59 24/27/60
f 16/29/61 5/12/62 20/30/63 24/27/64
