# This file uses centimeters as units for non-parametric coordinates.

mtllib VRAsset_Pipe_Fat.mtl
g default
v 1.618060 -0.500000 0.500000
v 1.618060 0.500000 0.500000
v 1.618060 0.500000 -0.500000
v 1.618060 -0.500000 -0.500000
v -1.705802 -0.000000 0.684594
v -1.705784 -0.500000 0.500000
v 1.618060 0.000000 0.684594
v -1.705783 0.500000 0.500000
v -1.705783 0.684525 0.000000
v 1.618060 0.684525 0.000000
v -1.705783 0.500000 -0.500000
v -1.705783 -0.000000 -0.684594
v 1.618060 0.000000 -0.684594
v -1.705783 -0.500000 -0.500000
v -1.705783 -0.684525 0.000000
v 1.618060 -0.684525 0.000000
v -1.554574 -0.500000 0.500000
v -1.554574 -0.684525 0.000000
v -1.554574 -0.500000 -0.500000
v -1.554574 -0.000000 -0.684594
v -1.554574 0.500000 -0.500000
v -1.554574 0.684525 0.000000
v -1.554574 0.500000 0.500000
v -1.554583 -0.000000 0.684594
v -1.554574 -0.538931 0.538926
v -1.554574 -0.737821 -0.000000
v -1.705784 -0.538931 0.538926
v -1.705783 -0.737821 0.000000
v -1.705783 -0.538931 -0.538926
v -1.554574 -0.538931 -0.538926
v -1.554574 0.000000 -0.737892
v -1.705783 -0.000000 -0.737892
v -1.705783 0.538931 -0.538926
v -1.554574 0.538931 -0.538926
v -1.554574 0.737821 0.000000
v -1.705783 0.737821 -0.000000
v -1.705783 0.538931 0.538926
v -1.554574 0.538931 0.538926
v -1.554583 -0.000000 0.737892
v -1.705802 0.000000 0.737892
v 1.089285 -0.000000 0.684594
v 1.089287 0.500000 0.500000
v 1.089287 0.684525 0.000000
v 1.089287 0.500000 -0.500000
v 1.089287 -0.000000 -0.684594
v 1.089287 -0.500000 -0.500000
v 1.089287 -0.684525 0.000000
v 1.089287 -0.500000 0.500000
v 0.799324 0.000000 1.015622
v 0.799328 0.741770 0.741770
v 0.799328 1.015520 0.000000
v 0.799328 0.741770 -0.741770
v 0.799328 0.000000 -1.015622
v 0.799328 -0.741770 -0.741770
v 0.799328 -1.015520 0.000000
v 0.799328 -0.741770 0.741770
v 0.031736 0.000000 1.169757
v 0.031746 0.854344 0.854344
v 0.031746 1.169640 0.000000
v 0.031746 0.854344 -0.854344
v 0.031746 0.000000 -1.169757
v 0.031746 -0.854344 -0.854344
v 0.031746 -1.169640 0.000000
v 0.031745 -0.854344 0.854344
v -0.735849 0.000000 1.015622
v -0.735840 0.741770 0.741770
v -0.735840 1.015520 0.000000
v -0.735840 0.741770 -0.741770
v -0.735840 0.000000 -1.015622
v -0.735840 -0.741770 -0.741770
v -0.735840 -1.015520 0.000000
v -0.735840 -0.741770 0.741770
v -1.025809 -0.000000 0.684594
v -1.025801 0.500000 0.500000
v -1.025801 0.684525 0.000000
v -1.025801 0.500000 -0.500000
v -1.025801 -0.000000 -0.684594
v -1.025801 -0.500000 -0.500000
v -1.025801 -0.684525 0.000000
v -1.025802 -0.500000 0.500000
vt 0.625000 0.000000
vt 0.625000 0.250000
vt 0.625000 0.500000
vt 0.625000 0.750000
vt 0.625000 1.000000
vt 0.500000 0.125000
vt 0.500000 0.000000
vt 0.625000 0.125000
vt 0.500000 0.250000
vt 0.500000 0.375000
vt 0.625000 0.375000
vt 0.500000 0.500000
vt 0.500000 0.625000
vt 0.625000 0.625000
vt 0.500000 0.750000
vt 0.500000 0.875000
vt 0.625000 0.875000
vt 0.500000 1.000000
vt 0.562500 0.000000
vt 0.562500 1.000000
vt 0.562500 0.875000
vt 0.562500 0.750000
vt 0.562500 0.625000
vt 0.562500 0.500000
vt 0.562500 0.375000
vt 0.562500 0.250000
vt 0.562500 0.125000
vt 0.562500 0.875000
vt 0.562500 1.000000
vt 0.500000 1.000000
vt 0.500000 0.875000
vt 0.562500 0.750000
vt 0.500000 0.750000
vt 0.562500 0.625000
vt 0.500000 0.625000
vt 0.562500 0.500000
vt 0.500000 0.500000
vt 0.562500 0.375000
vt 0.500000 0.375000
vt 0.562500 0.250000
vt 0.500000 0.250000
vt 0.562500 0.125000
vt 0.500000 0.125000
vt 0.562500 0.000000
vt 0.500000 0.000000
vt 0.614583 0.125000
vt 0.614583 0.250000
vt 0.614583 0.375000
vt 0.614583 0.500000
vt 0.614583 0.625000
vt 0.614583 0.750000
vt 0.614583 0.875000
vt 0.614583 0.000000
vt 0.614583 1.000000
vt 0.604167 0.125000
vt 0.604167 0.250000
vt 0.604167 0.375000
vt 0.604167 0.500000
vt 0.604167 0.625000
vt 0.604167 0.750000
vt 0.604167 0.875000
vt 0.604167 0.000000
vt 0.604167 1.000000
vt 0.593750 0.125000
vt 0.593750 0.250000
vt 0.593750 0.375000
vt 0.593750 0.500000
vt 0.593750 0.625000
vt 0.593750 0.750000
vt 0.593750 0.875000
vt 0.593750 0.000000
vt 0.593750 1.000000
vt 0.583333 0.125000
vt 0.583333 0.250000
vt 0.583333 0.375000
vt 0.583333 0.500000
vt 0.583333 0.625000
vt 0.583333 0.750000
vt 0.583333 0.875000
vt 0.583333 0.000000
vt 0.583333 1.000000
vt 0.572917 0.125000
vt 0.572917 0.250000
vt 0.572917 0.375000
vt 0.572917 0.500000
vt 0.572917 0.625000
vt 0.572917 0.750000
vt 0.572917 0.875000
vt 0.572917 0.000000
vt 0.572917 1.000000
vn 0.000000 -0.000000 1.000000
vn 0.000000 -0.707140 0.707073
vn 0.000000 -0.707144 0.707070
vn -0.000000 0.000000 1.000000
vn -0.000000 0.707144 0.707070
vn -0.000000 0.707140 0.707073
vn 0.000000 1.000000 0.000000
vn 0.000000 1.000000 0.000000
vn -0.000000 0.707142 -0.707071
vn -0.000000 0.707142 -0.707071
vn 0.000000 0.000000 -1.000000
vn 0.000000 0.000000 -1.000000
vn 0.000000 -0.707142 -0.707071
vn 0.000000 -0.707142 -0.707071
vn 0.000000 -1.000000 0.000000
vn 0.000000 -1.000000 -0.000000
vn -0.000000 -1.000000 -0.000000
vn -0.000000 -0.707138 0.707076
vn -0.000000 -0.707132 0.707081
vn -0.000000 -1.000000 0.000000
vn 0.000000 -0.707141 -0.707073
vn 0.000000 -0.707141 -0.707073
vn -0.000000 0.000000 -1.000000
vn -0.000000 -0.000000 -1.000000
vn -0.000000 0.707141 -0.707073
vn -0.000000 0.707141 -0.707073
vn -0.000000 1.000000 0.000000
vn -0.000000 1.000000 -0.000000
vn 0.000000 0.707133 0.707081
vn 0.000000 0.707138 0.707076
vn -0.000000 -0.000000 1.000000
vn -0.000000 -0.000000 1.000000
vn 1.000000 -0.000000 0.000000
vn 1.000000 0.000008 0.000004
vn 1.000000 0.000008 0.000004
vn 1.000000 -0.000000 0.000000
vn -1.000000 -0.000014 -0.000007
vn -1.000000 -0.000000 -0.000001
vn -1.000000 -0.000000 -0.000001
vn -1.000000 -0.000014 -0.000007
vn 1.000000 -0.000001 0.000000
vn 1.000000 -0.000001 0.000000
vn -1.000000 -0.000001 0.000000
vn -1.000000 -0.000001 0.000000
vn 1.000000 -0.000000 0.000000
vn 1.000000 -0.000000 0.000000
vn -1.000000 -0.000000 0.000000
vn -1.000000 -0.000000 0.000000
vn 1.000000 0.000001 0.000000
vn 1.000000 0.000001 0.000000
vn -1.000000 0.000001 0.000000
vn -1.000000 0.000001 0.000000
vn 1.000000 0.000000 0.000000
vn 1.000000 0.000000 0.000000
vn -1.000000 0.000001 0.000000
vn -1.000000 0.000001 0.000000
vn 1.000000 -0.000008 0.000003
vn 1.000000 -0.000008 0.000003
vn -1.000000 0.000016 -0.000007
vn -1.000000 0.000016 -0.000007
vn 1.000000 0.000000 0.000007
vn 1.000000 0.000000 0.000007
vn -1.000000 0.000001 -0.000013
vn -1.000000 0.000001 -0.000013
vn 0.000000 0.000000 1.000000
vn 0.000000 0.707142 0.707072
vn 0.000000 0.707142 0.707072
vn 0.000000 0.000000 1.000000
vn 0.000000 1.000000 0.000000
vn 0.000000 1.000000 0.000000
vn 0.000000 0.707142 -0.707071
vn 0.000000 0.707142 -0.707071
vn 0.000000 0.000000 -1.000000
vn 0.000000 0.000000 -1.000000
vn 0.000000 -0.707142 -0.707071
vn 0.000000 -0.707142 -0.707071
vn 0.000000 -1.000000 0.000000
vn 0.000000 -1.000000 0.000000
vn 0.000000 -0.707142 0.707072
vn 0.000000 -0.707142 0.707072
vn 0.752227 -0.000000 0.658904
vn 0.762675 0.457371 0.457318
vn 0.357979 0.660279 0.660215
vn 0.354774 -0.000000 0.934952
vn 0.354756 0.934959 0.000000
vn 0.752196 0.658939 0.000000
vn 0.762675 0.457372 -0.457316
vn 0.357979 0.660280 -0.660214
vn 0.354776 -0.000000 -0.934951
vn 0.752229 0.000000 -0.658902
vn 0.762675 -0.457372 -0.457316
vn 0.357979 -0.660280 -0.660214
vn 0.354756 -0.934959 0.000000
vn 0.752196 -0.658939 0.000000
vn 0.762675 -0.457371 0.457318
vn 0.357979 -0.660279 0.660215
vn 0.000001 0.707140 0.707074
vn -0.000001 0.000000 1.000000
vn -0.000000 1.000000 -0.000000
vn -0.000000 0.707140 -0.707074
vn -0.000000 0.000000 -1.000000
vn -0.000000 -0.707140 -0.707074
vn -0.000000 -1.000000 0.000000
vn 0.000001 -0.707140 0.707074
vn -0.357976 0.660281 0.660213
vn -0.354777 0.000000 0.934951
vn -0.354754 0.934960 0.000000
vn -0.357977 0.660280 -0.660214
vn -0.354774 -0.000000 -0.934952
vn -0.357977 -0.660280 -0.660214
vn -0.354754 -0.934960 -0.000000
vn -0.357976 -0.660281 0.660214
vn -0.762671 0.457378 0.457316
vn -0.752228 0.000000 0.658903
vn -0.752193 0.658943 0.000000
vn -0.762672 0.457374 -0.457319
vn -0.752226 -0.000000 -0.658905
vn -0.762672 -0.457374 -0.457319
vn -0.752193 -0.658943 -0.000000
vn -0.762671 -0.457378 0.457316
s 1
g Pipe_Fat
usemtl initialShadingGroup
f 24/27/1 17/19/2 80/89/3 73/82/4
f 73/82/4 74/83/5 23/26/6 24/27/1
f 22/25/7 23/26/6 74/83/5 75/84/8
f 75/84/8 76/85/9 21/24/10 22/25/7
f 20/23/11 21/24/10 76/85/9 77/86/12
f 77/86/12 78/87/13 19/22/14 20/23/11
f 18/21/15 19/22/14 78/87/13 79/88/16
f 79/88/16 80/90/3 17/20/2 18/21/15
s 2
f 26/28/17 25/29/18 27/30/19 28/31/20
f 29/33/21 30/32/22 26/28/17 28/31/20
f 31/34/23 30/32/22 29/33/21 32/35/24
f 33/37/25 34/36/26 31/34/23 32/35/24
f 35/38/27 34/36/26 33/37/25 36/39/28
f 37/41/29 38/40/30 35/38/27 36/39/28
f 39/42/31 38/40/30 37/41/29 40/43/32
f 27/45/19 25/44/18 39/42/31 40/43/32
s 3
f 18/21/33 17/20/34 25/29/35 26/28/36
s 4
f 6/18/37 15/16/38 28/31/39 27/30/40
s 3
f 19/22/41 18/21/33 26/28/36 30/32/42
s 4
f 15/16/38 14/15/43 29/33/44 28/31/39
s 3
f 20/23/45 19/22/41 30/32/42 31/34/46
s 4
f 14/15/43 12/13/47 32/35/48 29/33/44
s 3
f 21/24/49 20/23/45 31/34/46 34/36/50
s 4
f 12/13/47 11/12/51 33/37/52 32/35/48
s 3
f 22/25/53 21/24/49 34/36/50 35/38/54
s 4
f 11/12/51 9/10/55 36/39/56 33/37/52
s 3
f 23/26/57 22/25/53 35/38/54 38/40/58
s 4
f 9/10/55 8/9/59 37/41/60 36/39/56
s 3
f 24/27/61 23/26/57 38/40/58 39/42/62
s 4
f 8/9/59 5/6/63 40/43/64 37/41/60
s 3
f 17/19/34 24/27/61 39/42/62 25/44/35
s 4
f 5/6/63 6/7/37 27/45/40 40/43/64
s 5
f 7/8/65 2/2/66 42/47/67 41/46/68
f 43/48/69 42/47/67 2/2/66 10/11/70
f 10/11/70 3/3/71 44/49/72 43/48/69
f 45/50/73 44/49/72 3/3/71 13/14/74
f 13/14/74 4/4/75 46/51/76 45/50/73
f 47/52/77 46/51/76 4/4/75 16/17/78
f 16/17/78 1/5/79 48/54/80 47/52/77
f 41/46/68 48/53/80 1/1/79 7/8/65
s 6
f 41/46/81 42/47/82 50/56/83 49/55/84
f 51/57/85 50/56/83 42/47/82 43/48/86
f 43/48/86 44/49/87 52/58/88 51/57/85
f 53/59/89 52/58/88 44/49/87 45/50/90
f 45/50/90 46/51/91 54/60/92 53/59/89
f 55/61/93 54/60/92 46/51/91 47/52/94
f 47/52/94 48/54/95 56/63/96 55/61/93
f 49/55/84 56/62/96 48/53/95 41/46/81
f 49/55/84 50/56/83 58/65/97 57/64/98
f 59/66/99 58/65/97 50/56/83 51/57/85
f 51/57/85 52/58/88 60/67/100 59/66/99
f 61/68/101 60/67/100 52/58/88 53/59/89
f 53/59/89 54/60/92 62/69/102 61/68/101
f 63/70/103 62/69/102 54/60/92 55/61/93
f 55/61/93 56/63/96 64/72/104 63/70/103
f 57/64/98 64/71/104 56/62/96 49/55/84
f 57/64/98 58/65/97 66/74/105 65/73/106
f 67/75/107 66/74/105 58/65/97 59/66/99
f 59/66/99 60/67/100 68/76/108 67/75/107
f 69/77/109 68/76/108 60/67/100 61/68/101
f 61/68/101 62/69/102 70/78/110 69/77/109
f 71/79/111 70/78/110 62/69/102 63/70/103
f 63/70/103 64/72/104 72/81/112 71/79/111
f 65/73/106 72/80/112 64/71/104 57/64/98
f 65/73/106 66/74/105 74/83/113 73/82/114
f 75/84/115 74/83/113 66/74/105 67/75/107
f 67/75/107 68/76/108 76/85/116 75/84/115
f 77/86/117 76/85/116 68/76/108 69/77/109
f 69/77/109 70/78/110 78/87/118 77/86/117
f 79/88/119 78/87/118 70/78/110 71/79/111
f 71/79/111 72/81/112 80/90/120 79/88/119
f 73/82/114 80/89/120 72/80/112 65/73/106
