# This file uses centimeters as units for non-parametric coordinates.

mtllib VRAsset_PipeBox.mtl
g default
v 3.306235 -1.393367 4.647864
v 3.440990 -1.393367 4.647864
v 3.306235 2.836302 4.647864
v 3.440990 2.836302 4.647864
v 3.306235 2.836302 1.273395
v 3.440990 2.836302 1.273395
v 3.306235 -1.393367 1.273395
v 3.440990 -1.393367 1.273395
v 3.373613 0.721467 4.647864
v 3.373613 -1.393367 4.647864
v 3.440990 0.721467 4.647864
v 3.373613 2.836302 4.647864
v 3.306235 0.721468 4.647864
v 3.373613 2.836302 2.960630
v 3.440990 2.836302 2.960630
v 3.373613 2.836302 1.273395
v 3.306235 2.836302 2.960630
v 3.373613 0.721467 1.273395
v 3.440990 0.721467 1.273395
v 3.373613 -1.393367 1.273395
v 3.306235 0.721467 1.273395
v 3.373613 -1.393367 2.960630
v 3.440990 -1.393367 2.960630
v 3.306235 -1.393367 2.960630
v 3.440990 0.721467 2.960630
v 3.306235 0.721468 2.960630
vt 0.375000 0.000000
vt 0.625000 0.000000
vt 0.375000 0.250000
vt 0.625000 0.250000
vt 0.375000 0.500000
vt 0.625000 0.500000
vt 0.375000 0.750000
vt 0.625000 0.750000
vt 0.375000 1.000000
vt 0.625000 1.000000
vt 0.875000 0.000000
vt 0.875000 0.250000
vt 0.125000 0.000000
vt 0.125000 0.250000
vt 0.500000 0.125000
vt 0.500000 0.000000
vt 0.500000 1.000000
vt 0.625000 0.125000
vt 0.500000 0.250000
vt 0.375000 0.125000
vt 0.500000 0.375000
vt 0.625000 0.375000
vt 0.750000 0.250000
vt 0.500000 0.500000
vt 0.250000 0.250000
vt 0.375000 0.375000
vt 0.500000 0.625000
vt 0.625000 0.625000
vt 0.875000 0.125000
vt 0.500000 0.750000
vt 0.125000 0.125000
vt 0.375000 0.625000
vt 0.500000 0.875000
vt 0.625000 0.875000
vt 0.750000 0.000000
vt 0.500000 1.000000
vt 0.250000 0.000000
vt 0.375000 0.875000
vt 0.750000 0.125000
vt 0.750000 0.000000
vt 0.875000 0.125000
vt 0.750000 0.250000
vt 0.250000 0.125000
vt 0.250000 0.000000
vt 0.250000 0.250000
vt 0.125000 0.125000
vn -0.000001 0.000000 1.000000
vn -0.000001 0.000000 1.000000
vn -0.000001 0.000000 1.000000
vn -0.000001 0.000000 1.000000
vn 0.000000 1.000000 0.000000
vn 0.000000 1.000000 0.000000
vn 0.000000 1.000000 0.000000
vn 0.000000 1.000000 0.000000
vn 0.000000 0.000000 -1.000000
vn 0.000000 0.000000 -1.000000
vn 0.000000 0.000000 -1.000000
vn 0.000000 0.000000 -1.000000
vn 0.000000 -1.000000 0.000000
vn 0.000000 -1.000000 0.000000
vn 0.000000 -1.000000 0.000000
vn 0.000000 -1.000000 0.000000
vn 1.000000 0.000000 0.000000
vn 1.000000 0.000000 0.000000
vn 1.000000 0.000000 0.000000
vn 1.000000 0.000000 0.000000
vn -1.000000 0.000000 0.000000
vn -1.000000 0.000000 0.000000
vn -1.000000 0.000000 0.000000
vn -1.000000 0.000000 0.000000
vn 0.000000 0.000000 1.000000
vn 0.000000 0.000000 1.000000
vn 0.000000 0.000000 1.000000
vn 0.000000 0.000000 1.000000
vn 0.000000 0.000000 1.000000
vn 0.000000 0.000000 1.000000
vn 0.000000 0.000000 1.000000
vn 0.000000 0.000000 1.000000
vn 0.000000 0.000000 1.000000
vn 0.000000 0.000000 1.000000
vn 0.000000 0.000000 1.000000
vn 0.000000 0.000000 1.000000
vn 0.000000 1.000000 0.000000
vn 0.000000 1.000000 0.000000
vn 0.000000 1.000000 0.000000
vn 0.000000 1.000000 0.000000
vn 0.000000 1.000000 0.000000
vn 0.000000 1.000000 0.000000
vn 0.000000 1.000000 0.000000
vn 0.000000 1.000000 0.000000
vn 0.000000 1.000000 0.000000
vn 0.000000 1.000000 0.000000
vn 0.000000 1.000000 0.000000
vn 0.000000 1.000000 0.000000
vn 0.000000 0.000000 -1.000000
vn 0.000000 0.000000 -1.000000
vn 0.000000 0.000000 -1.000000
vn 0.000000 0.000000 -1.000000
vn 0.000000 0.000000 -1.000000
vn 0.000000 0.000000 -1.000000
vn 0.000000 0.000000 -1.000000
vn 0.000000 0.000000 -1.000000
vn 0.000000 0.000000 -1.000000
vn 0.000000 0.000000 -1.000000
vn 0.000000 0.000000 -1.000000
vn 0.000000 0.000000 -1.000000
vn 0.000000 -1.000000 0.000000
vn 0.000000 -1.000000 0.000000
vn 0.000000 -1.000000 0.000000
vn 0.000000 -1.000000 0.000000
vn 0.000000 -1.000000 0.000000
vn 0.000000 -1.000000 0.000000
vn 0.000000 -1.000000 0.000000
vn 0.000000 -1.000000 0.000000
vn 0.000000 -1.000000 0.000000
vn 0.000000 -1.000000 0.000000
vn 0.000000 -1.000000 0.000000
vn 0.000000 -1.000000 0.000000
vn 1.000000 0.000000 0.000000
vn 1.000000 0.000000 0.000000
vn 1.000000 0.000000 0.000000
vn 1.000000 0.000000 0.000000
vn 1.000000 0.000000 0.000000
vn 1.000000 0.000000 0.000000
vn 1.000000 0.000000 0.000000
vn 1.000000 0.000000 0.000000
vn 1.000000 0.000000 0.000000
vn 1.000000 0.000000 0.000000
vn 1.000000 0.000000 0.000000
vn 1.000000 0.000000 0.000000
vn -1.000000 0.000000 0.000000
vn -1.000000 0.000000 0.000000
vn -1.000000 0.000000 0.000000
vn -1.000000 0.000000 0.000000
vn -1.000000 0.000000 0.000000
vn -1.000000 0.000000 0.000000
vn -1.000000 0.000000 0.000000
vn -1.000000 0.000000 0.000000
vn -1.000000 0.000000 0.000000
vn -1.000000 0.000000 0.000000
vn -1.000000 0.000000 0.000000
vn -1.000000 0.000000 0.000000
s off
g HiddenDoor PipeBox
usemtl initialShadingGroup
f 13/20/1 1/1/2 10/16/3 9/15/4
f 17/26/5 3/3/6 12/19/7 14/21/8
f 21/32/9 5/5/10 16/24/11 18/27/12
f 24/38/13 7/7/14 20/30/15 22/33/16
f 11/18/17 2/2/18 23/40/19 25/39/20
f 21/46/21 7/13/22 24/44/23 26/43/24
f 10/16/25 2/2/26 11/18/27 9/15/28
f 11/18/29 4/4/30 12/19/31 9/15/32
f 12/19/33 3/3/34 13/20/35 9/15/36
f 12/19/37 4/4/38 15/22/39 14/21/40
f 15/22/41 6/6/42 16/24/43 14/21/44
f 16/24/45 5/5/46 17/26/47 14/21/48
f 16/24/49 6/6/50 19/28/51 18/27/52
f 19/28/53 8/8/54 20/30/55 18/27/56
f 20/30/57 7/7/58 21/32/59 18/27/60
f 20/30/61 8/8/62 23/34/63 22/33/64
f 23/34/65 2/10/66 10/36/67 22/33/68
f 10/36/69 1/9/70 24/38/71 22/33/72
f 23/40/73 8/11/74 19/41/75 25/39/76
f 19/41/77 6/12/78 15/42/79 25/39/80
f 15/42/81 4/4/82 11/18/83 25/39/84
f 24/44/85 1/1/86 13/20/87 26/43/88
f 13/20/89 3/3/90 17/45/91 26/43/92
f 17/45/93 5/14/94 21/46/95 26/43/96
g default
v 5.052713 -1.393367 4.647864
v 5.187469 -1.393367 4.647864
v 5.052713 2.836305 4.647864
v 5.187469 2.836305 4.647864
v 5.052713 2.836305 1.273395
v 5.187469 2.836305 1.273395
v 5.052713 -1.393367 1.273395
v 5.187469 -1.393367 1.273395
v 5.120091 0.721467 4.647864
v 5.120091 -1.393367 4.647864
v 5.187469 0.721467 4.647864
v 5.120091 2.836305 4.647864
v 5.052713 0.721471 4.647864
v 5.120091 2.836305 2.960630
v 5.187469 2.836305 2.960630
v 5.120091 2.836305 1.273395
v 5.052713 2.836305 2.960630
v 5.120091 0.721467 1.273395
v 5.187469 0.721467 1.273395
v 5.120091 -1.393367 1.273395
v 5.052713 0.721467 1.273395
v 5.120091 -1.393367 2.960630
v 5.187469 -1.393367 2.960630
v 5.052713 -1.393367 2.960630
v 5.187469 0.721467 2.960630
v 5.052713 0.721471 2.960630
v 5.052713 -1.393367 1.446202
v 5.120091 -1.393367 1.446202
v 5.187469 -1.393367 1.446202
v 5.187469 0.721467 1.446202
v 5.187469 2.836304 1.446202
v 5.120091 2.836304 1.446202
v 5.052713 2.836304 1.446202
v 5.052713 0.721469 1.446202
v 5.052713 2.836304 4.475058
v 5.120091 2.836304 4.475058
v 5.187469 2.836304 4.475058
v 5.187469 0.721467 4.475058
v 5.187469 -1.393367 4.475058
v 5.120091 -1.393367 4.475058
v 5.052713 -1.393367 4.475058
v 5.052713 0.721470 4.475058
v 5.052713 2.659919 1.273395
v 5.120091 2.659919 1.273395
v 5.187469 2.659919 1.273395
v 5.187469 2.659919 1.446202
v 5.187469 2.659919 2.960630
v 5.187469 2.659919 4.475058
v 5.187469 2.659919 4.647864
v 5.120091 2.659919 4.647864
v 5.052713 2.659921 4.647864
v 5.052713 2.659920 4.475058
v 5.052713 2.659921 2.960630
v 5.052713 2.659920 1.446202
v 5.052713 -1.216982 4.647864
v 5.120091 -1.216984 4.647864
v 5.187469 -1.216984 4.647864
v 5.187469 -1.216983 4.475058
v 5.187469 -1.216984 2.960630
v 5.187469 -1.216983 1.446202
v 5.187469 -1.216984 1.273395
v 5.120091 -1.216984 1.273395
v 5.052713 -1.216984 1.273395
v 5.052713 -1.216983 1.446202
v 5.052713 -1.216982 2.960630
v 5.052713 -1.216982 4.475058
v 3.452713 2.659920 1.446202
v 3.452713 0.721469 1.446202
v 3.452713 2.659919 1.273395
v 3.452713 0.721467 1.273395
v 3.452713 -1.216984 1.273395
v 3.452713 -1.216983 1.446202
v 3.452713 -1.216982 4.475058
v 3.452713 0.721470 4.475058
v 3.452713 -1.216982 4.647864
v 3.452713 0.721471 4.647864
v 3.452713 2.659921 4.647864
v 3.452713 2.659920 4.475058
v 3.452713 2.836305 4.647864
v 3.452713 2.836304 4.475058
v 3.452713 2.659921 2.960630
v 3.452713 2.836305 2.960630
v 3.452713 2.836304 1.446202
v 3.452713 2.836305 1.273395
v 3.452713 -1.393367 1.273395
v 3.452713 -1.393367 1.446202
v 3.452713 -1.216982 2.960630
v 3.452713 -1.393367 2.960630
v 3.452713 -1.393367 4.475058
v 3.452713 -1.393367 4.647864
vt 0.375000 0.000000
vt 0.625000 0.000000
vt 0.375000 0.250000
vt 0.625000 0.250000
vt 0.375000 0.500000
vt 0.625000 0.500000
vt 0.375000 0.750000
vt 0.625000 0.750000
vt 0.375000 1.000000
vt 0.625000 1.000000
vt 0.875000 0.000000
vt 0.875000 0.250000
vt 0.125000 0.000000
vt 0.125000 0.250000
vt 0.500000 0.125000
vt 0.500000 0.000000
vt 0.500000 1.000000
vt 0.625000 0.125000
vt 0.500000 0.250000
vt 0.375000 0.125000
vt 0.500000 0.375000
vt 0.625000 0.375000
vt 0.750000 0.250000
vt 0.500000 0.500000
vt 0.250000 0.250000
vt 0.375000 0.375000
vt 0.500000 0.625000
vt 0.625000 0.625000
vt 0.875000 0.125000
vt 0.500000 0.750000
vt 0.125000 0.125000
vt 0.375000 0.625000
vt 0.500000 0.875000
vt 0.625000 0.875000
vt 0.750000 0.000000
vt 0.500000 1.000000
vt 0.250000 0.000000
vt 0.375000 0.875000
vt 0.750000 0.125000
vt 0.750000 0.000000
vt 0.875000 0.125000
vt 0.750000 0.250000
vt 0.250000 0.125000
vt 0.250000 0.000000
vt 0.250000 0.250000
vt 0.125000 0.125000
vt 0.187500 0.000000
vt 0.375000 0.812500
vt 0.500000 0.812500
vt 0.625000 0.812500
vt 0.812500 0.000000
vt 0.812500 0.125000
vt 0.625000 0.437500
vt 0.812500 0.250000
vt 0.500000 0.437500
vt 0.187500 0.250000
vt 0.375000 0.437500
vt 0.187500 0.125000
vt 0.312500 0.250000
vt 0.375000 0.312500
vt 0.500000 0.312500
vt 0.625000 0.312500
vt 0.687500 0.250000
vt 0.687500 0.125000
vt 0.625000 0.937500
vt 0.687500 0.000000
vt 0.500000 0.937500
vt 0.312500 0.000000
vt 0.375000 0.937500
vt 0.312500 0.125000
vt 0.125000 0.187500
vt 0.375000 0.562500
vt 0.500000 0.562500
vt 0.625000 0.562500
vt 0.875000 0.187500
vt 0.812500 0.187500
vt 0.750000 0.187500
vt 0.687500 0.187500
vt 0.625000 0.187500
vt 0.500000 0.187500
vt 0.375000 0.187500
vt 0.312500 0.187500
vt 0.250000 0.187500
vt 0.187500 0.187500
vt 0.375000 0.062500
vt 0.500000 0.062500
vt 0.625000 0.062500
vt 0.687500 0.062500
vt 0.750000 0.062500
vt 0.812500 0.062500
vt 0.625000 0.687500
vt 0.875000 0.062500
vt 0.500000 0.687500
vt 0.125000 0.062500
vt 0.375000 0.687500
vt 0.187500 0.062500
vt 0.250000 0.062500
vt 0.312500 0.062500
vt 0.187500 0.125000
vt 0.187500 0.187500
vt 0.125000 0.187500
vt 0.125000 0.125000
vt 0.125000 0.062500
vt 0.187500 0.062500
vt 0.312500 0.125000
vt 0.312500 0.062500
vt 0.375000 0.062500
vt 0.375000 0.125000
vt 0.375000 0.187500
vt 0.312500 0.187500
vt 0.375000 0.250000
vt 0.312500 0.250000
vt 0.250000 0.187500
vt 0.250000 0.250000
vt 0.187500 0.250000
vt 0.125000 0.250000
vt 0.125000 0.000000
vt 0.187500 0.000000
vt 0.250000 0.062500
vt 0.250000 0.000000
vt 0.312500 0.000000
vt 0.375000 0.000000
vn -0.000000 0.000000 1.000000
vn -0.000000 0.000000 1.000000
vn -0.000005 0.000000 1.000000
vn -0.000006 0.000000 1.000000
vn 0.000000 1.000000 0.000000
vn 0.000000 1.000000 -0.000000
vn 0.000000 1.000000 0.000000
vn 0.000000 1.000000 0.000001
vn 0.000000 0.000000 -1.000000
vn 0.000000 0.000000 -1.000000
vn 0.000000 0.000000 -1.000000
vn 0.000000 0.000000 -1.000000
vn 0.000000 -1.000000 0.000000
vn 0.000000 -1.000000 0.000000
vn 0.000000 -1.000000 0.000000
vn 0.000000 -1.000000 0.000000
vn 1.000000 0.000000 0.000000
vn 1.000000 0.000000 0.000000
vn 1.000000 0.000000 0.000000
vn 1.000000 0.000000 0.000000
vn -1.000000 0.000000 0.000000
vn -1.000000 0.000000 0.000000
vn -1.000000 0.000000 0.000000
vn -1.000000 0.000000 0.000000
vn 0.000000 0.000000 1.000000
vn 0.000000 0.000000 1.000000
vn 0.000000 0.000000 1.000000
vn 0.000000 0.000000 1.000000
vn 0.000000 0.000000 1.000000
vn 0.000000 0.000000 1.000000
vn 0.000000 0.000000 1.000000
vn 0.000000 0.000000 1.000000
vn 0.000000 0.000000 1.000000
vn 0.000000 0.000000 1.000000
vn 0.000000 0.000000 1.000000
vn 0.000000 1.000000 0.000000
vn 0.000000 1.000000 0.000000
vn 0.000000 1.000000 0.000001
vn 0.000000 1.000000 0.000001
vn 0.000000 1.000000 -0.000001
vn 0.000000 1.000000 -0.000000
vn 0.000000 1.000000 -0.000000
vn 0.000000 1.000000 -0.000001
vn 0.000000 1.000000 0.000000
vn 0.000000 1.000000 0.000000
vn 0.000000 1.000000 -0.000001
vn 0.000000 0.000000 -1.000000
vn 0.000000 0.000000 -1.000000
vn 0.000000 0.000000 -1.000000
vn 0.000000 0.000000 -1.000000
vn 0.000000 0.000000 -1.000000
vn 0.000000 0.000000 -1.000000
vn 0.000000 0.000000 -1.000000
vn 0.000000 0.000000 -1.000000
vn 0.000000 0.000000 -1.000000
vn 0.000000 0.000000 -1.000000
vn 0.000000 0.000000 -1.000000
vn 0.000000 -1.000000 0.000000
vn 0.000000 -1.000000 0.000000
vn 0.000000 -1.000000 0.000000
vn 0.000000 -1.000000 0.000000
vn 0.000000 -1.000000 0.000000
vn 0.000000 -1.000000 0.000000
vn 0.000000 -1.000000 0.000000
vn 0.000000 -1.000000 0.000000
vn 0.000000 -1.000000 0.000000
vn 0.000000 -1.000000 0.000000
vn 0.000000 -1.000000 0.000000
vn 1.000000 0.000000 0.000000
vn 1.000000 0.000000 0.000000
vn 1.000000 0.000000 0.000000
vn 1.000000 0.000000 0.000000
vn 1.000000 0.000000 0.000000
vn 1.000000 0.000000 0.000000
vn 1.000000 0.000000 0.000000
vn 1.000000 0.000000 0.000000
vn 1.000000 0.000000 0.000000
vn 1.000000 0.000000 0.000000
vn 1.000000 0.000000 0.000000
vn 1.000000 0.000000 0.000000
vn -1.000000 0.000000 0.000000
vn -1.000000 0.000000 0.000000
vn -1.000000 0.000000 0.000000
vn -1.000000 0.000000 0.000000
vn -1.000000 0.000000 0.000000
vn -1.000000 0.000000 0.000000
vn -1.000000 0.000000 0.000000
vn -1.000000 0.000000 0.000000
vn -1.000000 0.000000 0.000000
vn -1.000000 0.000000 0.000000
vn -1.000000 0.000000 0.000000
vn -1.000000 0.000000 0.000000
vn 0.000000 -1.000000 0.000000
vn 0.000000 -1.000000 0.000000
vn 0.000000 -1.000000 0.000000
vn 0.000000 -1.000000 0.000000
vn 1.000000 0.000000 0.000000
vn 1.000000 0.000000 0.000000
vn 1.000000 0.000000 0.000000
vn 1.000000 0.000000 0.000000
vn 0.000000 1.000000 0.000009
vn 0.000000 1.000000 0.000009
vn 0.000000 1.000000 0.000008
vn 0.000000 1.000000 0.000009
vn -1.000000 0.000000 0.000000
vn -1.000000 0.000000 0.000000
vn -1.000000 0.000000 0.000000
vn -1.000000 0.000000 0.000000
vn -1.000000 0.000000 0.000000
vn -1.000000 0.000000 0.000000
vn -1.000000 0.000000 0.000000
vn -1.000000 0.000000 0.000000
vn 0.000000 1.000000 -0.000009
vn 0.000000 1.000000 -0.000008
vn 0.000000 1.000000 -0.000009
vn 0.000000 1.000000 -0.000009
vn 1.000000 0.000000 0.000000
vn 1.000000 0.000000 0.000000
vn 1.000000 0.000000 0.000000
vn 1.000000 0.000000 0.000000
vn 0.000000 -1.000000 0.000000
vn 0.000000 -1.000000 0.000000
vn 0.000000 -1.000000 0.000000
vn 0.000000 -1.000000 0.000000
vn -1.000000 0.000000 0.000000
vn -1.000000 0.000000 0.000000
vn -1.000000 0.000000 0.000000
vn -1.000000 0.000000 0.000000
vn -1.000000 0.000000 0.000000
vn -1.000000 0.000000 0.000000
vn -1.000000 0.000000 0.000000
vn -1.000000 0.000000 0.000000
vn 0.000000 0.000000 -1.000000
vn 0.000000 0.000000 -1.000000
vn 0.000000 0.000000 -1.000000
vn 0.000000 0.000000 -1.000000
vn 1.000000 0.000000 0.000000
vn 1.000000 0.000000 0.000000
vn 1.000000 0.000000 0.000000
vn 1.000000 0.000000 0.000000
vn 1.000000 0.000000 0.000000
vn 1.000000 0.000000 0.000000
vn 0.000000 0.000000 1.000000
vn 0.000000 0.000000 1.000000
vn 0.000005 0.000000 1.000000
vn 0.000000 0.000000 1.000000
vn -1.000000 0.000000 0.000000
vn -1.000000 0.000000 0.000000
vn -1.000000 0.000000 0.000000
vn -1.000000 0.000000 0.000000
vn -1.000000 0.000000 0.000000
vn -1.000000 0.000000 0.000000
vn -1.000000 0.000000 0.000000
vn -1.000000 0.000000 0.000000
vn 0.000000 0.000000 1.000000
vn 0.000000 0.000000 1.000000
vn 0.000000 0.000000 1.000000
vn 0.000000 0.000000 1.000000
vn 1.000000 0.000000 0.000000
vn 1.000000 0.000000 0.000000
vn 1.000000 0.000000 0.000000
vn 1.000000 0.000000 0.000000
vn 1.000000 0.000000 0.000000
vn 1.000000 0.000000 0.000000
vn 0.000000 0.000000 -1.000000
vn 0.000000 0.000000 -1.000000
vn 0.000000 0.000000 -1.000000
vn 0.000000 0.000000 -1.000000
vn -1.000000 0.000000 0.000000
vn -1.000000 0.000000 0.000000
vn -1.000000 0.000000 0.000000
vn -1.000000 0.000000 0.000000
vn -1.000000 0.000000 0.000000
vn -1.000000 0.000000 0.000000
vn -1.000000 0.000000 0.000000
vn -1.000000 0.000000 0.000000
vn 0.000000 0.000000 1.000000
vn 0.000000 0.000000 1.000000
vn 0.000000 0.000000 1.000000
vn 0.000000 0.000000 1.000000
vn 0.000000 0.000000 -1.000000
vn 0.000000 0.000000 -1.000000
vn 0.000000 0.000000 -1.000000
vn 0.000000 0.000000 1.000000
vn 0.000000 0.000000 1.000000
vn 0.000000 0.000000 -1.000000
vn 0.000000 0.000000 -1.000000
vn 0.000000 0.000000 -1.000000
vn 0.000000 0.000000 -1.000000
vn 0.000000 0.000000 1.000000
vn 0.000000 0.000000 1.000000
vn 0.000000 0.000000 1.000000
vn 0.000000 0.000000 -1.000000
vn 0.000000 0.000000 -1.000000
vn 0.000000 0.000000 1.000000
vn 0.000000 1.000000 -0.000000
vn 0.000000 1.000000 -0.000009
vn 0.000000 -1.000000 0.000000
vn 0.000000 -1.000000 -0.000000
vn 0.000000 -1.000000 -0.000000
vn 0.000000 -1.000000 0.000000
vn 0.000000 1.000000 0.000000
vn 0.000000 1.000000 0.000000
vn 0.000000 -1.000000 0.000001
vn 0.000000 -1.000000 0.000001
vn 0.000000 1.000000 0.000009
vn 0.000000 0.000000 -1.000000
vn 0.000000 0.000000 -1.000000
vn 0.000000 -1.000000 0.000000
vn 0.000000 -1.000000 0.000000
vn 0.000000 1.000000 -0.000000
vn 0.000000 1.000000 -0.000000
vn 0.000000 1.000000 -0.000000
vn 0.000000 1.000000 -0.000000
vn 0.000000 -1.000000 0.000000
vn 0.000000 -1.000000 0.000000
vn 0.000000 1.000000 0.000000
vn 0.000000 1.000000 0.000000
vn 0.000000 -1.000000 0.000000
vn 0.000000 0.000000 1.000000
s 1
g PipeBox HiddenCompartment
usemtl initialShadingGroup
f 39/66/97 81/131/98 82/132/99 35/61/100
s 2
f 43/72/101 61/106/102 62/107/103 40/67/104
s 3
f 47/78/105 69/118/106 70/119/107 44/73/108
s 4
f 50/84/109 53/94/110 54/95/111 48/79/112
s 5
f 64/110/113 84/134/114 85/135/115 51/85/116
s off
f 60/104/117 90/142/118 91/143/119 52/89/120
s 6
f 82/132/121 83/133/122 37/64/123 35/61/124
s 7
f 37/64/125 75/125/126 76/126/127 35/61/128
s 1
f 76/126/129 77/127/130 39/66/97 35/61/131
s 9
f 62/107/132 63/108/133 41/68/134 40/67/135
s 10
f 41/68/136 57/99/137 58/101/138 40/67/139
s 2
f 58/101/140 59/103/141 43/72/101 40/67/142
s 12
f 70/119/143 71/120/144 45/74/145 44/73/146
s 13
f 45/74/147 87/137/148 88/139/149 44/73/150
s 3
f 88/139/151 89/141/152 47/78/105 44/73/153
s 15
f 54/95/154 55/96/155 49/80/156 48/79/157
s 16
f 49/80/158 65/111/159 66/113/160 48/79/161
s 4
f 66/113/162 67/115/163 50/84/109 48/79/164
s 18
f 85/135/165 86/136/166 56/98/167 51/85/168
s 19
f 56/98/169 72/122/170 73/123/171 51/85/172
s 20
f 73/123/173 74/124/174 64/110/175 51/85/176
s off
f 91/143/177 92/144/178 68/116/179 52/89/180
f 68/116/181 78/128/182 79/129/183 52/89/184
f 79/129/185 80/130/186 60/104/187 52/89/188
s 4
f 54/95/111 53/94/110 33/53/189 46/76/190
s 15
f 46/76/191 34/54/192 55/96/155 54/95/154
s 18
f 56/98/167 86/136/166 87/138/193 45/87/194
s 19
f 45/87/195 71/121/196 72/122/170 56/98/169
s 10
f 58/101/138 57/99/137 32/52/197 42/70/198
s 2
f 42/70/199 31/51/200 59/103/141 58/101/140
s 21
f 94/145/201 93/146/202 95/147/203 96/148/204
s 22
f 96/148/205 97/149/206 98/150/207 94/145/208
s 2
f 62/107/103 61/106/102 29/49/209 38/65/210
s 9
f 38/65/211 30/50/212 63/108/133 62/107/132
s 20
f 64/110/175 74/124/174 75/125/213 37/64/214
s 5
f 37/64/215 83/133/216 84/134/114 64/110/113
s 16
f 66/113/160 65/111/159 28/56/217 36/82/218
s 4
f 36/82/219 27/55/220 67/115/163 66/113/162
s 23
f 100/151/221 99/152/222 101/153/223 102/154/224
s 24
f 102/154/225 103/155/226 104/156/227 100/151/228
s 3
f 70/119/107 69/118/106 31/51/229 42/70/230
s 12
f 42/70/231 32/52/232 71/120/144 70/119/143
s 19
f 72/122/170 71/121/196 32/58/233 57/100/234
f 73/123/171 72/122/170 57/100/234 41/88/235
s 20
f 41/88/236 63/109/237 74/124/174 73/123/173
f 75/125/213 74/124/174 63/109/237 30/50/238
s 7
f 76/126/127 75/125/126 30/50/239 38/65/240
s 1
f 38/65/241 29/49/242 77/127/130 76/126/129
s 24
f 104/156/227 103/155/226 105/157/243 106/158/244
f 107/159/245 104/156/227 106/158/244 108/160/246
s 21
f 108/160/247 109/161/248 93/146/202 107/159/249
f 95/147/203 93/146/202 109/161/248 110/162/250
s 1
f 82/132/99 81/131/98 27/47/251 36/62/252
s 6
f 36/62/253 28/48/254 83/133/122 82/132/121
s 5
f 84/134/114 83/133/216 28/48/255 65/112/256
f 85/135/115 84/134/114 65/112/256 49/86/257
s 18
f 49/86/258 55/97/259 86/136/166 85/135/165
f 87/138/193 86/136/166 55/97/259 34/57/260
s 13
f 88/139/149 87/137/148 34/54/261 46/76/262
s 3
f 46/76/263 33/53/264 89/141/152 88/139/151
s 22
f 98/150/207 97/149/206 111/163/265 112/164/266
f 113/165/267 98/150/207 112/164/266 114/166/268
s 23
f 114/166/269 115/167/270 99/152/222 113/165/271
f 101/153/223 99/152/222 115/167/270 116/168/272
s 25
f 60/104/273 80/130/274 93/146/275 94/145/276
s 3
f 69/117/106 47/92/105 96/148/277 95/147/278
f 47/92/105 89/140/152 97/149/279 96/148/277
s 25
f 90/142/280 60/104/273 94/145/276 98/150/281
s 26
f 68/116/282 92/144/283 99/152/284 100/151/285
s 1
f 81/131/98 39/66/97 102/154/286 101/153/287
f 39/66/97 77/127/130 103/155/288 102/154/286
s 26
f 78/128/289 68/116/282 100/151/285 104/156/290
s 1
f 77/127/130 29/49/242 105/157/291 103/155/288
s 2
f 29/49/209 61/105/102 106/158/292 105/157/293
s 27
f 79/129/294 78/128/295 104/156/296 107/159/297
s 2
f 61/105/102 43/91/101 108/160/298 106/158/292
f 43/91/101 59/102/141 109/161/299 108/160/298
s 27
f 80/130/300 79/129/294 107/159/297 93/146/301
s 2
f 59/102/141 31/60/200 110/162/302 109/161/299
s 3
f 31/60/229 69/117/106 95/147/278 110/162/303
f 89/140/152 33/59/264 111/163/304 97/149/279
s 4
f 33/59/189 53/93/110 112/164/305 111/163/306
s 28
f 91/143/307 90/142/308 98/150/309 113/165/310
s 4
f 53/93/110 50/90/109 114/166/311 112/164/305
f 50/90/109 67/114/163 115/167/312 114/166/311
s 28
f 92/144/313 91/143/307 113/165/310 99/152/314
s 4
f 67/114/163 27/47/220 116/168/315 115/167/312
s 1
f 27/47/251 81/131/98 101/153/287 116/168/316
