# This file uses centimeters as units for non-parametric coordinates.

mtllib VRAsset_Pipe_Stright.mtl
g default
v 3.262787 -0.500000 0.500000
v 3.262787 0.500000 0.500000
v 3.262787 0.500000 -0.500000
v 3.262787 -0.500000 -0.500000
v -0.061076 -0.000000 0.684594
v -0.061057 -0.500000 0.500000
v 3.262787 0.000000 0.684594
v -0.061057 0.500000 0.500000
v -0.061057 0.684525 0.000000
v 3.262787 0.684525 0.000000
v -0.061057 0.500000 -0.500000
v -0.061057 -0.000000 -0.684594
v 3.262787 0.000000 -0.684594
v -0.061057 -0.500000 -0.500000
v -0.061057 -0.684525 0.000000
v 3.262787 -0.684525 0.000000
v 0.090153 -0.500000 0.500000
v 0.090153 -0.684525 0.000000
v 0.090153 -0.500000 -0.500000
v 0.090153 -0.000000 -0.684594
v 0.090153 0.500000 -0.500000
v 0.090153 0.684525 0.000000
v 0.090153 0.500000 0.500000
v 0.090143 -0.000000 0.684594
v 0.090153 -0.538931 0.538926
v 0.090153 -0.737821 -0.000000
v -0.061057 -0.538931 0.538926
v -0.061057 -0.737821 0.000000
v -0.061057 -0.538931 -0.538926
v 0.090153 -0.538931 -0.538926
v 0.090153 0.000000 -0.737892
v -0.061057 -0.000000 -0.737892
v -0.061057 0.538931 -0.538926
v 0.090153 0.538931 -0.538926
v 0.090153 0.737821 0.000000
v -0.061057 0.737821 -0.000000
v -0.061057 0.538931 0.538926
v 0.090153 0.538931 0.538926
v 0.090143 -0.000000 0.737892
v -0.061076 0.000000 0.737892
vt 0.625000 0.000000
vt 0.625000 0.250000
vt 0.625000 0.500000
vt 0.625000 0.750000
vt 0.625000 1.000000
vt 0.500000 0.125000
vt 0.500000 0.000000
vt 0.625000 0.125000
vt 0.500000 0.250000
vt 0.500000 0.375000
vt 0.625000 0.375000
vt 0.500000 0.500000
vt 0.500000 0.625000
vt 0.625000 0.625000
vt 0.500000 0.750000
vt 0.500000 0.875000
vt 0.625000 0.875000
vt 0.500000 1.000000
vt 0.562500 0.000000
vt 0.562500 1.000000
vt 0.562500 0.875000
vt 0.562500 0.750000
vt 0.562500 0.625000
vt 0.562500 0.500000
vt 0.562500 0.375000
vt 0.562500 0.250000
vt 0.562500 0.125000
vt 0.562500 0.875000
vt 0.562500 1.000000
vt 0.500000 1.000000
vt 0.500000 0.875000
vt 0.562500 0.750000
vt 0.500000 0.750000
vt 0.562500 0.625000
vt 0.500000 0.625000
vt 0.562500 0.500000
vt 0.500000 0.500000
vt 0.562500 0.375000
vt 0.500000 0.375000
vt 0.562500 0.250000
vt 0.500000 0.250000
vt 0.562500 0.125000
vt 0.500000 0.125000
vt 0.562500 0.000000
vt 0.500000 0.000000
vn 0.000000 -0.000000 1.000000
vn 0.000000 -0.707140 0.707073
vn 0.000000 -0.707142 0.707072
vn 0.000000 -0.000000 1.000000
vn -0.000000 0.707142 0.707072
vn -0.000000 0.707140 0.707073
vn 0.000000 1.000000 0.000000
vn 0.000000 1.000000 0.000000
vn -0.000000 0.707142 -0.707071
vn -0.000000 0.707142 -0.707071
vn 0.000000 0.000000 -1.000000
vn 0.000000 0.000000 -1.000000
vn 0.000000 -0.707142 -0.707071
vn 0.000000 -0.707142 -0.707071
vn 0.000000 -1.000000 0.000000
vn 0.000000 -1.000000 0.000000
vn -0.000000 -1.000000 -0.000000
vn -0.000000 -0.707138 0.707076
vn -0.000000 -0.707132 0.707081
vn -0.000000 -1.000000 0.000000
vn 0.000000 -0.707141 -0.707073
vn 0.000000 -0.707141 -0.707073
vn -0.000000 0.000000 -1.000000
vn -0.000000 -0.000000 -1.000000
vn -0.000000 0.707141 -0.707073
vn -0.000000 0.707141 -0.707073
vn -0.000000 1.000000 0.000000
vn -0.000000 1.000000 -0.000000
vn 0.000000 0.707132 0.707081
vn 0.000000 0.707137 0.707076
vn -0.000000 -0.000000 1.000000
vn -0.000000 -0.000000 1.000000
vn 1.000000 0.000000 0.000000
vn 1.000000 0.000008 0.000003
vn 1.000000 0.000008 0.000003
vn 1.000000 0.000000 0.000000
vn -1.000000 -0.000015 -0.000007
vn -1.000000 -0.000000 -0.000001
vn -1.000000 -0.000000 -0.000001
vn -1.000000 -0.000015 -0.000007
vn 1.000000 -0.000000 0.000000
vn 1.000000 -0.000000 0.000000
vn -1.000000 -0.000000 0.000000
vn -1.000000 -0.000000 0.000000
vn 1.000000 0.000000 0.000000
vn 1.000000 0.000000 0.000000
vn -1.000000 0.000000 0.000000
vn -1.000000 0.000000 0.000000
vn 1.000000 0.000000 0.000000
vn 1.000000 0.000000 0.000000
vn -1.000000 0.000000 0.000000
vn -1.000000 0.000000 0.000000
vn 1.000000 0.000000 0.000000
vn 1.000000 0.000000 0.000000
vn -1.000000 0.000000 0.000000
vn -1.000000 0.000000 0.000000
vn 1.000000 -0.000008 0.000003
vn 1.000000 -0.000008 0.000003
vn -1.000000 0.000016 -0.000007
vn -1.000000 0.000016 -0.000007
vn 1.000000 -0.000000 0.000006
vn 1.000000 -0.000000 0.000006
vn -1.000000 0.000001 -0.000013
vn -1.000000 0.000001 -0.000013
s 1
g Pipe_Straight
usemtl initialShadingGroup
f 24/27/1 17/19/2 1/1/3 7/8/4
f 7/8/4 2/2/5 23/26/6 24/27/1
f 22/25/7 23/26/6 2/2/5 10/11/8
f 10/11/8 3/3/9 21/24/10 22/25/7
f 20/23/11 21/24/10 3/3/9 13/14/12
f 13/14/12 4/4/13 19/22/14 20/23/11
f 18/21/15 19/22/14 4/4/13 16/17/16
f 16/17/16 1/5/3 17/20/2 18/21/15
s 2
f 26/28/17 25/29/18 27/30/19 28/31/20
f 29/33/21 30/32/22 26/28/17 28/31/20
f 31/34/23 30/32/22 29/33/21 32/35/24
f 33/37/25 34/36/26 31/34/23 32/35/24
f 35/38/27 34/36/26 33/37/25 36/39/28
f 37/41/29 38/40/30 35/38/27 36/39/28
f 39/42/31 38/40/30 37/41/29 40/43/32
f 27/45/19 25/44/18 39/42/31 40/43/32
s 3
f 18/21/33 17/20/34 25/29/35 26/28/36
s 4
f 6/18/37 15/16/38 28/31/39 27/30/40
s 3
f 19/22/41 18/21/33 26/28/36 30/32/42
s 4
f 15/16/38 14/15/43 29/33/44 28/31/39
s 3
f 20/23/45 19/22/41 30/32/42 31/34/46
s 4
f 14/15/43 12/13/47 32/35/48 29/33/44
s 3
f 21/24/49 20/23/45 31/34/46 34/36/50
s 4
f 12/13/47 11/12/51 33/37/52 32/35/48
s 3
f 22/25/53 21/24/49 34/36/50 35/38/54
s 4
f 11/12/51 9/10/55 36/39/56 33/37/52
s 3
f 23/26/57 22/25/53 35/38/54 38/40/58
s 4
f 9/10/55 8/9/59 37/41/60 36/39/56
s 3
f 24/27/61 23/26/57 38/40/58 39/42/62
s 4
f 8/9/59 5/6/63 40/43/64 37/41/60
s 3
f 17/19/34 24/27/61 39/42/62 25/44/35
s 4
f 5/6/63 6/7/37 27/45/40 40/43/64
