# This file uses centimeters as units for non-parametric coordinates.

mtllib VRAsset_HiddenPipe_Broken_V2.mtl
g default
v -0.381037 -1.519791 0.371955
v 0.390442 -1.519791 0.371955
v -0.381037 1.542713 0.371955
v 0.390442 1.542713 0.371955
v -0.381037 1.542713 -0.399523
v 0.390442 1.542713 -0.399523
v -0.381037 -1.519791 -0.399523
v 0.390442 -1.519791 -0.399523
v 0.086329 -0.100469 0.518247
v 0.004703 -1.519791 0.518247
v 0.390442 0.011461 0.371955
v 0.004703 1.542713 0.518247
v -0.381037 -0.094664 0.371955
v 0.536734 1.542713 -0.013784
v 0.004703 1.542713 -0.545815
v -0.527329 1.542713 -0.013784
v 0.004703 0.011461 -0.545815
v 0.390442 0.011461 -0.399523
v 0.004703 -1.519791 -0.545815
v -0.381037 0.011461 -0.399523
v 0.536734 -1.519791 -0.013784
v -0.527329 -1.519791 -0.013784
v 0.536734 0.011461 -0.013784
v -0.527329 0.011461 -0.013784
v -0.381037 0.228883 -0.399523
v 0.004703 0.228883 -0.545815
v 0.390442 0.228883 -0.399523
v 0.536734 0.228883 -0.013784
v 0.390442 0.228883 0.371955
v 0.079735 0.374920 0.537268
v -0.381037 0.335008 0.371955
v -0.527329 0.228883 -0.013784
v -0.381037 -0.205961 0.371955
v 0.004703 -0.205961 0.518247
v 0.390442 -0.205961 0.371955
v 0.536734 -0.205961 -0.013784
v 0.390442 -0.205961 -0.399523
v 0.004703 -0.205961 -0.545815
v -0.381037 -0.205961 -0.399523
v -0.527329 -0.205961 -0.013784
v 0.390442 0.120172 0.371955
v 0.536734 0.120172 -0.013784
v 0.390442 0.120172 -0.399523
v 0.004703 0.120172 -0.545815
v -0.381037 0.120172 -0.399523
v -0.527329 0.118706 -0.013784
v 0.069243 0.120172 0.518247
v 0.390442 -0.097250 -0.399523
v 0.536734 -0.097250 -0.013784
v 0.390442 -0.097250 0.371955
v 0.004703 -0.097250 0.518247
v -0.381037 -0.097250 0.371955
v -0.527329 -0.097250 -0.013784
v -0.381037 -0.097250 -0.399523
v 0.004703 -0.097250 -0.545815
v -0.495297 -1.973368 0.486216
v 0.504703 -1.973368 0.486216
v -0.495297 1.996290 0.486216
v 0.504703 1.996290 0.486216
v -0.495297 1.996290 -0.513784
v 0.504703 1.996290 -0.513784
v -0.495297 -1.973368 -0.513784
v 0.504703 -1.973368 -0.513784
v 0.004703 0.011461 0.675842
v 0.004703 -1.973368 0.675842
v 0.504703 -0.082824 0.486216
v 0.004703 1.996290 0.675842
v -0.495297 0.011461 0.486216
v 0.694328 1.996290 -0.013784
v 0.004703 1.996290 -0.703409
v -0.684923 1.996290 -0.013784
v 0.004703 0.011461 -0.703409
v 0.504703 0.011461 -0.513784
v 0.004703 -1.973368 -0.703409
v -0.495297 0.011461 -0.513784
v 0.694328 -1.973368 -0.013784
v -0.684923 -1.973368 -0.013784
v 0.694328 0.011461 -0.013784
v -0.684923 0.011461 -0.013784
v -0.495297 0.293287 -0.513784
v 0.004703 0.293287 -0.703409
v 0.504703 0.293287 -0.513784
v 0.694328 0.293287 -0.013784
v 0.504703 0.517104 0.486216
v 0.004703 0.293287 0.675842
v -0.495297 0.293287 0.486216
v -0.684923 0.293287 -0.013784
v -0.495297 -0.270364 0.486216
v 0.004703 -0.270364 0.675842
v 0.504703 -0.270364 0.486216
v 0.694328 -0.270364 -0.013784
v 0.504703 -0.270364 -0.513784
v 0.004703 -0.270364 -0.703409
v -0.495297 -0.270364 -0.513784
v -0.684923 -0.270364 -0.013784
v 0.504703 0.152374 0.486216
v 0.694328 0.152374 -0.013784
v 0.504703 0.152374 -0.513784
v 0.004703 0.152374 -0.703409
v -0.495297 0.152374 -0.513784
v -0.684923 0.150474 -0.013784
v -0.616905 0.086789 0.486216
v 0.124306 0.152374 0.787821
v 0.504703 -0.129452 -0.513784
v 0.694328 -0.129452 -0.013784
v 0.504703 -0.129452 0.486216
v 0.004703 -0.129452 0.675842
v -0.495297 -0.129452 0.486216
v -0.684923 -0.129452 -0.013784
v -0.495297 -0.129452 -0.513784
v 0.004703 -0.129452 -0.703409
v -0.681016 0.238230 0.373832
v -0.364332 -0.032206 0.272906
v -0.419168 0.101076 0.358306
v 0.098204 -0.088539 0.440381
v 0.098204 0.393287 0.440381
v 0.027283 0.152374 0.453378
v -0.338975 0.314457 0.307894
v -0.324057 0.112652 -0.102326
v -0.474932 0.181063 0.297669
vt 0.375000 0.000000
vt 0.625000 0.000000
vt 0.375000 0.250000
vt 0.625000 0.250000
vt 0.375000 0.500000
vt 0.625000 0.500000
vt 0.375000 0.750000
vt 0.625000 0.750000
vt 0.875000 0.000000
vt 0.875000 0.250000
vt 0.125000 0.000000
vt 0.125000 0.250000
vt 0.500000 0.125000
vt 0.500000 0.000000
vt 0.625000 0.125000
vt 0.500000 0.250000
vt 0.375000 0.125000
vt 0.500000 0.500000
vt 0.500000 0.625000
vt 0.625000 0.625000
vt 0.500000 0.750000
vt 0.375000 0.625000
vt 0.750000 0.125000
vt 0.750000 0.000000
vt 0.875000 0.125000
vt 0.750000 0.250000
vt 0.250000 0.125000
vt 0.250000 0.000000
vt 0.250000 0.250000
vt 0.125000 0.125000
vt 0.125000 0.187500
vt 0.375000 0.562500
vt 0.500000 0.562500
vt 0.625000 0.562500
vt 0.875000 0.187500
vt 0.750000 0.187500
vt 0.625000 0.187500
vt 0.500000 0.187500
vt 0.375000 0.187500
vt 0.250000 0.187500
vt 0.375000 0.062500
vt 0.500000 0.062500
vt 0.625000 0.062500
vt 0.750000 0.062500
vt 0.625000 0.687500
vt 0.875000 0.062500
vt 0.500000 0.687500
vt 0.125000 0.062500
vt 0.375000 0.687500
vt 0.250000 0.062500
vt 0.625000 0.156250
vt 0.750000 0.156250
vt 0.625000 0.593750
vt 0.875000 0.156250
vt 0.500000 0.593750
vt 0.125000 0.156250
vt 0.375000 0.593750
vt 0.250000 0.156250
vt 0.500000 0.156250
vt 0.625000 0.656250
vt 0.875000 0.093750
vt 0.750000 0.093750
vt 0.625000 0.093750
vt 0.500000 0.093750
vt 0.375000 0.093750
vt 0.250000 0.093750
vt 0.125000 0.093750
vt 0.375000 0.656250
vt 0.500000 0.656250
vt 0.500000 0.093750
vt 0.375000 0.093750
vt 0.375000 0.062500
vt 0.500000 0.062500
vt 0.500000 0.593750
vt 0.375000 0.593750
vt 0.375000 0.562500
vt 0.500000 0.562500
vt 0.750000 0.093750
vt 0.625000 0.093750
vt 0.625000 0.062500
vt 0.750000 0.062500
vt 0.250000 0.093750
vt 0.125000 0.093750
vt 0.125000 0.062500
vt 0.250000 0.062500
vt 0.500000 0.156250
vt 0.625000 0.156250
vt 0.625000 0.187500
vt 0.500000 0.187500
vt 0.625000 0.562500
vt 0.625000 0.593750
vt 0.500000 0.656250
vt 0.625000 0.656250
vt 0.625000 0.687500
vt 0.500000 0.687500
vt 0.375000 0.687500
vt 0.375000 0.656250
vt 0.875000 0.062500
vt 0.875000 0.093750
vt 0.750000 0.156250
vt 0.875000 0.156250
vt 0.875000 0.187500
vt 0.750000 0.187500
vt 0.250000 0.187500
vt 0.125000 0.187500
vt 0.125000 0.156250
vt 0.250000 0.156250
vt 0.375000 0.500000
vt 0.500000 0.500000
vt 0.625000 0.500000
vt 0.875000 0.250000
vt 0.750000 0.250000
vt 0.625000 0.250000
vt 0.500000 0.250000
vt 0.375000 0.250000
vt 0.375000 0.187500
vt 0.250000 0.250000
vt 0.125000 0.250000
vt 0.375000 0.000000
vt 0.500000 0.000000
vt 0.625000 0.000000
vt 0.750000 0.000000
vt 0.875000 0.000000
vt 0.625000 0.750000
vt 0.500000 0.750000
vt 0.375000 0.750000
vt 0.125000 0.000000
vt 0.250000 0.000000
vt 0.625000 0.125000
vt 0.750000 0.125000
vt 0.875000 0.125000
vt 0.625000 0.625000
vt 0.500000 0.625000
vt 0.375000 0.625000
vt 0.125000 0.125000
vt 0.250000 0.125000
vt 0.375000 0.125000
vt 0.375000 0.156250
vt 0.500000 0.125000
vt 0.000000 0.000000
vt 1.000000 0.000000
vt 1.000000 1.000000
vt 0.000000 1.000000
vt 0.000000 0.000000
vt 1.000000 0.000000
vt 1.000000 1.000000
vt 0.000000 1.000000
vt 0.000000 0.000000
vt 1.000000 0.000000
vt 1.000000 1.000000
vt 0.000000 1.000000
vt 0.000000 0.000000
vt 1.000000 0.000000
vt 1.000000 1.000000
vt 0.000000 1.000000
vt 0.000000 0.000000
vt 1.000000 0.000000
vt 1.000000 1.000000
vt 0.000000 1.000000
vt 0.000000 0.000000
vt 1.000000 0.000000
vt 1.000000 1.000000
vt 0.000000 1.000000
vt 0.000000 0.000000
vt 1.000000 0.000000
vt 1.000000 1.000000
vt 0.000000 1.000000
vt 0.000000 0.000000
vt 1.000000 0.000000
vt 1.000000 1.000000
vt 0.000000 1.000000
vt 0.000000 0.000000
vt 1.000000 0.000000
vt 1.000000 1.000000
vt 0.000000 1.000000
vn -0.021272 -0.104169 -0.994332
vn 0.000000 0.000000 -1.000000
vn 0.707107 0.000000 -0.707107
vn 0.767344 -0.057806 -0.638625
vn 0.000000 0.000000 1.000000
vn 0.000000 0.000000 1.000000
vn 0.707189 0.000000 0.707025
vn 0.707109 0.000000 0.707105
vn -1.000000 0.000000 0.000000
vn -1.000000 0.000000 0.000000
vn -0.707107 0.000000 -0.707107
vn -0.767252 0.042618 -0.639928
vn 0.998614 0.000000 0.052638
vn 1.000000 0.000000 0.000000
vn 0.707107 0.000000 0.707107
vn 0.707107 0.000000 0.707107
vn -0.426178 0.022040 -0.904371
vn -0.074456 -0.006355 -0.997204
vn -0.770832 -0.002205 -0.637035
vn -0.691591 0.013122 -0.722170
vn -0.707107 0.000000 0.707107
vn -0.707107 0.000000 0.707107
vn 0.000000 0.000000 1.000000
vn 0.000000 0.000000 1.000000
vn -0.707107 0.000000 0.707107
vn -0.707107 0.000000 0.707107
vn -1.000000 0.000000 -0.000000
vn -1.000000 0.000000 0.000000
vn 0.998452 0.000000 0.055625
vn 0.935016 0.000000 0.354606
vn 0.000000 0.000000 1.000000
vn 0.707107 0.000000 0.707107
vn -0.707107 0.000000 0.707107
vn -1.000000 0.000000 0.000000
vn -0.748116 -0.009775 -0.663497
vn 0.006046 -0.007395 -0.999954
vn 0.730661 0.001704 -0.682738
vn 0.698557 0.001893 -0.715552
vn 0.999970 0.000000 0.007816
vn 0.000000 0.000000 -1.000000
vn 0.707107 0.000000 -0.707107
vn -0.707107 0.000000 -0.707107
vn -1.000000 0.000000 0.000000
vn -0.707107 0.000000 0.707107
vn 0.000000 0.000000 1.000000
vn 0.707107 0.000000 0.707107
vn 1.000000 0.000000 0.000000
vn -1.000000 0.000000 -0.000000
vn -0.743389 0.020293 -0.668552
vn -0.707107 0.000000 0.707107
vn 0.000000 0.000000 1.000000
vn 0.706569 0.000000 0.707644
vn 0.971342 0.000000 0.237685
vn -0.424615 0.097708 -0.900086
vn 0.912615 -0.217523 -0.346147
vn -0.034594 0.000000 0.999401
vn -0.707107 0.000000 0.707107
vn -0.707107 0.000000 0.707107
vn 0.000000 0.000000 1.000000
vn 0.000000 0.000000 -1.000000
vn -0.707109 0.000000 -0.707105
vn -0.707189 0.000000 -0.707025
vn 0.000000 0.000000 -1.000000
vn 0.999401 0.000000 -0.034594
vn 0.707107 0.000000 0.707107
vn 0.707107 0.000000 0.707107
vn 1.000000 0.000000 0.000000
vn -1.000000 0.000000 0.000000
vn -0.707107 0.000000 -0.707107
vn -0.707107 0.000000 -0.707107
vn -1.000000 0.000000 0.000000
vn 0.409544 0.288537 0.865460
vn 0.744047 0.000000 0.668128
vn 0.709900 0.013822 0.704167
vn 0.409544 0.288537 0.865460
vn 0.707107 0.000000 -0.707107
vn 0.707107 0.000000 -0.707107
vn 0.000000 0.000000 -1.000000
vn 0.707107 0.000000 -0.707107
vn 0.707107 0.000000 -0.707107
vn 0.000000 0.000000 -1.000000
vn 0.996535 0.000000 0.083176
vn 0.999270 0.000000 -0.038203
vn -0.999736 0.019701 -0.011786
vn -0.986203 0.011933 -0.165108
vn -0.707107 0.000000 -0.707107
vn 0.000000 0.000000 -1.000000
vn 0.707107 0.000000 -0.707107
vn 0.999917 0.000000 -0.012883
vn 0.707107 0.000000 0.707107
vn -0.067164 0.000000 0.997742
vn -0.012883 0.000000 0.999917
vn -0.707107 0.000000 0.707107
vn -0.707107 0.000000 0.707107
vn -1.000000 0.000000 0.000000
vn -0.707107 0.000000 0.707107
vn 0.000000 0.000000 1.000000
vn 0.707107 0.000000 0.707107
vn 1.000000 0.000000 0.000000
vn 0.707107 0.000000 -0.707107
vn 0.000000 0.000000 -1.000000
vn -0.707107 0.000000 -0.707107
vn -1.000000 0.000000 0.000000
vn 0.727662 -0.131050 0.673301
vn 0.999976 0.000000 0.006920
vn 0.707107 0.000000 -0.707107
vn 0.000000 0.000000 -1.000000
vn -0.706569 0.000000 -0.707644
vn -0.991953 -0.114025 -0.055024
vn -0.854058 -0.484556 0.189184
vn -0.854058 -0.484556 0.189184
vn 0.419615 -0.379003 0.824791
vn 0.419615 -0.379003 0.824791
vn -0.096883 0.000000 0.995296
vn -0.707107 0.000000 0.707107
vn -0.753187 0.650171 0.099942
vn -0.753186 0.650171 0.099941
vn 0.694890 0.325170 0.641399
vn 0.694890 0.325170 0.641399
vn 0.694890 0.325170 0.641399
vn 0.694890 0.325170 0.641399
vn 0.143730 0.961115 -0.235795
vn 0.143730 0.961115 -0.235795
vn 0.143730 0.961115 -0.235795
vn 0.143730 0.961115 -0.235795
vn -0.991112 -0.131938 -0.017027
vn -0.991112 -0.131938 -0.017027
vn -0.991112 -0.131938 -0.017027
vn -0.991112 -0.131938 -0.017027
vn 0.148366 -0.969643 -0.194370
vn 0.148366 -0.969643 -0.194370
vn 0.148366 -0.969643 -0.194370
vn 0.148366 -0.969643 -0.194370
vn -0.991112 0.131938 -0.017027
vn -0.991112 0.131938 -0.017027
vn -0.991112 0.131938 -0.017027
vn -0.991112 0.131938 -0.017027
vn 0.072861 0.994133 0.079940
vn 0.072861 0.994133 0.079940
vn 0.072861 0.994133 0.079940
vn 0.072861 0.994133 0.079940
vn 0.279760 -0.811411 0.513173
vn 0.279760 -0.811411 0.513173
vn 0.279760 -0.811411 0.513173
vn 0.279760 -0.811411 0.513173
vn -0.113730 -0.978374 0.172769
vn -0.113730 -0.978374 0.172769
vn -0.113730 -0.978374 0.172769
vn -0.113730 -0.978374 0.172769
s 1
g HiddenPipe_Broken
usemtl initialShadingGroup
f 51/64/1 34/42/2 33/41/3 52/65/4
f 44/55/5 26/33/6 25/32/7 45/57/8
f 49/62/9 36/44/10 35/43/11 50/63/12
f 53/66/13 40/50/14 39/48/15 54/67/16
f 34/42/2 51/64/1 50/63/12 35/43/11
f 47/59/17 30/38/18 29/37/19 41/51/20
f 26/33/6 44/55/5 43/53/21 27/34/22
f 55/69/23 38/47/24 37/45/25 48/60/26
f 38/47/24 55/69/23 54/68/16 39/49/15
f 36/44/10 49/62/9 48/61/26 37/46/25
f 42/52/27 28/36/28 27/35/22 43/54/21
f 28/36/28 42/52/27 41/51/20 29/37/19
f 40/50/14 53/66/13 52/65/4 33/41/3
f 32/40/29 46/58/30 45/56/8 25/31/7
f 26/33/6 15/18/31 5/5/32 25/32/7
f 15/18/31 26/33/6 27/34/22 6/6/33
f 28/36/28 14/26/34 6/10/33 27/35/22
f 14/26/34 28/36/28 29/37/19 4/4/35
f 30/38/18 12/16/36 4/4/35 29/37/19
f 12/16/36 30/38/18 31/39/37 3/3/38
f 32/40/29 16/29/39 3/3/38 31/39/37
f 16/29/39 32/40/29 25/31/7 5/12/32
f 34/42/2 10/14/40 1/1/41 33/41/3
f 10/14/40 34/42/2 35/43/11 2/2/42
f 36/44/10 21/24/43 2/2/42 35/43/11
f 21/24/43 36/44/10 37/46/25 8/9/44
f 38/47/24 19/21/45 8/8/44 37/45/25
f 19/21/45 38/47/24 39/49/15 7/7/46
f 40/50/14 22/28/47 7/11/46 39/48/15
f 22/28/47 40/50/14 33/41/3 1/1/41
f 42/52/27 23/23/48 11/15/49 41/51/20
f 18/25/50 23/23/48 42/52/27 43/54/21
f 44/55/5 17/19/51 18/20/50 43/53/21
f 20/22/52 17/19/51 44/55/5 45/57/8
f 46/58/30 24/27/53 20/30/52 45/56/8
f 11/15/49 9/13/54 47/59/17 41/51/20
f 49/62/9 23/23/48 18/25/50 48/61/26
f 11/15/49 23/23/48 49/62/9 50/63/12
f 51/64/1 9/13/54 11/15/49 50/63/12
f 13/17/55 9/13/54 51/64/1 52/65/4
f 53/66/13 24/27/53 13/17/55 52/65/4
f 20/30/52 24/27/53 53/66/13 54/67/16
f 55/69/23 17/19/51 20/22/52 54/68/16
f 18/20/50 17/19/51 55/69/23 48/60/26
s 5
f 107/70/56 108/71/57 88/72/58 89/73/59
f 99/74/60 100/75/61 80/76/62 81/77/63
f 105/78/64 106/79/65 90/80/66 91/81/67
f 109/82/68 110/83/69 94/84/70 95/85/71
f 89/73/59 90/80/66 106/79/65 107/70/56
f 103/86/72 96/87/73 84/88/74 85/89/75
f 81/77/63 82/90/76 98/91/77 99/74/60
f 111/92/78 104/93/79 92/94/80 93/95/81
f 93/95/81 94/96/70 110/97/69 111/92/78
f 91/81/67 92/98/80 104/99/79 105/78/64
f 97/100/82 98/101/77 82/102/76 83/103/83
f 83/103/83 84/88/74 96/87/73 97/100/82
f 95/85/71 88/72/58 108/71/57 109/82/68
f 87/104/84 80/105/62 100/106/61 101/107/85
f 81/77/63 80/76/62 60/108/86 70/109/87
f 70/109/87 61/110/88 82/90/76 81/77/63
f 83/103/83 82/102/76 61/111/88 69/112/89
f 69/112/89 59/113/90 84/88/74 83/103/83
f 85/89/91 84/88/74 59/113/90 67/114/92
f 67/114/92 58/115/93 86/116/94 85/89/91
f 87/104/84 86/116/94 58/115/93 71/117/95
f 71/117/95 60/118/86 80/105/62 87/104/84
f 89/73/59 88/72/58 56/119/96 65/120/97
f 65/120/97 57/121/98 90/80/66 89/73/59
f 91/81/67 90/80/66 57/121/98 76/122/99
f 76/122/99 63/123/100 92/98/80 91/81/67
f 93/95/81 92/94/80 63/124/100 74/125/101
f 74/125/101 62/126/102 94/96/70 93/95/81
f 95/85/71 94/84/70 62/127/102 77/128/103
f 77/128/103 56/119/96 88/72/58 95/85/71
f 97/100/82 96/87/73 66/129/104 78/130/105
f 73/131/106 98/101/77 97/100/82 78/130/105
f 99/74/60 98/91/77 73/132/106 72/133/107
f 75/134/108 100/75/61 99/74/60 72/133/107
f 101/107/85 100/106/61 75/135/108 79/136/109
f 68/137/110 102/138/111 101/107/85 79/136/109
f 66/129/104 96/87/73 103/86/112 64/139/113
f 105/78/64 104/99/79 73/131/106 78/130/105
f 66/129/104 106/79/65 105/78/64 78/130/105
f 107/70/56 106/79/65 66/129/104 64/139/114
f 68/137/115 108/71/57 107/70/56 64/139/114
f 109/82/68 108/71/57 68/137/115 79/136/109
f 75/135/108 110/83/69 109/82/68 79/136/109
f 111/92/78 110/97/69 75/134/108 72/133/107
f 73/132/106 104/93/79 111/92/78 72/133/107
f 86/140/116 87/141/84 101/142/85 112/143/117
s off
f 102/144/118 68/145/119 113/146/120 114/147/121
f 68/148/122 64/149/123 115/150/124 113/151/125
f 103/152/126 85/153/127 116/154/128 117/155/129
f 85/156/130 86/157/131 118/158/132 116/159/133
f 64/160/134 103/161/135 117/162/136 115/163/137
f 101/164/138 102/165/139 114/166/140 119/167/141
f 86/168/142 112/169/143 120/170/144 118/171/145
f 112/172/146 101/173/147 119/174/148 120/175/149
