# This file uses centimeters as units for non-parametric coordinates.

mtllib VRAsset_Pipe_Corner.mtl
g default
v 2.345441 -0.500000 0.500000
v 2.345440 0.500000 0.500000
v 2.345441 0.500000 -0.500000
v 2.345440 -0.500000 -0.500000
v 1.006586 -0.000000 0.684594
v 1.006603 -0.500000 0.500000
v 2.345441 0.000000 0.684594
v 1.006604 0.500000 0.500000
v 1.006604 0.684525 0.000000
v 2.345440 0.684525 0.000000
v 1.006604 0.500000 -0.500000
v 1.006604 -0.000000 -0.684594
v 2.345441 0.000000 -0.684594
v 1.006604 -0.500000 -0.500000
v 1.006604 -0.684525 0.000000
v 2.345440 -0.684525 0.000000
v 2.411446 -0.522925 0.500000
v 2.545440 -0.041214 0.684594
v 2.361994 -0.700700 0.000000
v 2.411445 -0.522925 -0.500000
v 2.545441 -0.041214 -0.684594
v 2.679435 0.440497 -0.500000
v 2.728886 0.618272 0.000000
v 2.679436 0.440497 0.500000
v 2.522700 -0.612086 0.500000
v 2.927691 -0.318861 0.684594
v 2.373236 -0.720301 0.000000
v 2.522699 -0.612086 -0.500000
v 2.927691 -0.318861 -0.684594
v 3.332684 -0.025635 -0.500000
v 3.482146 0.082579 0.000000
v 3.332684 -0.025635 0.500000
v 2.552892 -0.758532 0.500000
v 3.052870 -0.753858 0.684594
v 2.368375 -0.760256 0.000000
v 2.552891 -0.758532 -0.500000
v 3.052869 -0.753858 -0.684594
v 3.552848 -0.749185 -0.500000
v 3.737365 -0.747461 0.000000
v 3.552848 -0.749185 0.500000
v 2.560369 -1.884771 0.500000
v 2.375852 -1.885072 -0.000000
v 2.560369 -1.884771 -0.500000
v 3.060346 -1.883955 -0.684594
v 3.560324 -1.883139 -0.500000
v 3.744841 -1.882837 -0.000000
v 3.560324 -1.883139 0.500000
v 3.060347 -1.883955 0.684594
v 1.157813 -0.500000 0.500000
v 1.157813 -0.684525 0.000000
v 1.157813 -0.500000 -0.500000
v 1.157813 -0.000000 -0.684594
v 1.157813 0.500000 -0.500000
v 1.157813 0.684525 0.000000
v 1.157813 0.500000 0.500000
v 1.157804 -0.000000 0.684594
v 1.157813 -0.538931 0.538926
v 1.157813 -0.737821 -0.000000
v 1.006603 -0.538931 0.538926
v 1.006604 -0.737821 0.000000
v 1.006604 -0.538931 -0.538926
v 1.157813 -0.538931 -0.538926
v 1.157813 0.000000 -0.737892
v 1.006604 -0.000000 -0.737892
v 1.006604 0.538931 -0.538926
v 1.157813 0.538931 -0.538926
v 1.157813 0.737821 0.000000
v 1.006604 0.737821 -0.000000
v 1.006604 0.538931 0.538926
v 1.157813 0.538931 0.538926
v 1.157804 -0.000000 0.737892
v 1.006585 0.000000 0.737892
vt 0.625000 0.000000
vt 0.625000 0.250000
vt 0.625000 0.500000
vt 0.625000 0.750000
vt 0.625000 1.000000
vt 0.875000 0.000000
vt 0.875000 0.250000
vt 0.500000 0.125000
vt 0.500000 0.000000
vt 0.625000 0.125000
vt 0.500000 0.250000
vt 0.500000 0.375000
vt 0.625000 0.375000
vt 0.500000 0.500000
vt 0.500000 0.625000
vt 0.625000 0.625000
vt 0.500000 0.750000
vt 0.500000 0.875000
vt 0.625000 0.875000
vt 0.500000 1.000000
vt 0.750000 0.000000
vt 0.875000 0.125000
vt 0.750000 0.250000
vt 0.625000 0.125000
vt 0.625000 0.000000
vt 0.750000 0.000000
vt 0.875000 0.000000
vt 0.875000 0.125000
vt 0.875000 0.250000
vt 0.750000 0.250000
vt 0.625000 0.250000
vt 0.625000 0.125000
vt 0.625000 0.000000
vt 0.750000 0.000000
vt 0.875000 0.000000
vt 0.875000 0.125000
vt 0.875000 0.250000
vt 0.750000 0.250000
vt 0.625000 0.250000
vt 0.625000 0.125000
vt 0.625000 0.000000
vt 0.750000 0.000000
vt 0.875000 0.000000
vt 0.875000 0.125000
vt 0.875000 0.250000
vt 0.750000 0.250000
vt 0.625000 0.250000
vt 0.625000 0.000000
vt 0.750000 0.000000
vt 0.875000 0.000000
vt 0.875000 0.125000
vt 0.875000 0.250000
vt 0.750000 0.250000
vt 0.625000 0.250000
vt 0.625000 0.125000
vt 0.562500 0.000000
vt 0.562500 1.000000
vt 0.562500 0.875000
vt 0.562500 0.750000
vt 0.562500 0.625000
vt 0.562500 0.500000
vt 0.562500 0.375000
vt 0.562500 0.250000
vt 0.562500 0.125000
vt 0.562500 0.875000
vt 0.562500 1.000000
vt 0.500000 1.000000
vt 0.500000 0.875000
vt 0.562500 0.750000
vt 0.500000 0.750000
vt 0.562500 0.625000
vt 0.500000 0.625000
vt 0.562500 0.500000
vt 0.500000 0.500000
vt 0.562500 0.375000
vt 0.500000 0.375000
vt 0.562500 0.250000
vt 0.500000 0.250000
vt 0.562500 0.125000
vt 0.500000 0.125000
vt 0.562500 0.000000
vt 0.500000 0.000000
vn 0.000000 -0.000000 1.000000
vn 0.000000 -0.707140 0.707074
vn -0.012964 -0.690997 0.722742
vn 0.003735 0.024097 0.999703
vn 0.028306 0.720872 0.692490
vn -0.000000 0.707140 0.707074
vn 0.000000 1.000000 -0.000000
vn 0.039448 0.999222 -0.000000
vn 0.028307 0.720872 -0.692490
vn -0.000000 0.707142 -0.707071
vn 0.000000 0.000000 -1.000000
vn 0.003735 0.024097 -0.999703
vn -0.012964 -0.690997 -0.722741
vn 0.000000 -0.707142 -0.707071
vn 0.000000 -1.000000 0.000000
vn -0.018285 -0.999833 0.000000
vn -0.268713 -0.420578 0.866549
vn 0.087204 0.155125 0.984039
vn -0.597965 -0.801523 0.000000
vn -0.268713 -0.420578 -0.866549
vn 0.087204 0.155125 -0.984039
vn 0.373312 0.699795 -0.609036
vn 0.464230 0.885715 -0.000000
vn 0.373312 0.699795 0.609036
vn -0.408224 -0.246640 0.878932
vn 0.147564 0.108877 0.983042
vn -0.907175 -0.420754 0.000001
vn -0.408224 -0.246640 -0.878932
vn 0.147564 0.108877 -0.983042
vn 0.638888 0.469301 -0.609572
vn 0.805158 0.593060 -0.000000
vn 0.638888 0.469301 0.609572
vn -0.678387 -0.021062 0.734403
vn 0.050796 0.015758 0.998585
vn -0.999868 -0.016258 0.000000
vn -0.678387 -0.021062 -0.734403
vn 0.050796 0.015758 -0.998585
vn 0.735856 0.090892 -0.671011
vn 0.992443 0.122708 0.000000
vn 0.735856 0.090892 0.671010
vn -0.999978 -0.006643 0.000000
vn -0.706088 -0.004688 0.708108
vn -0.706089 -0.004688 -0.708108
vn 0.001729 0.000007 -0.999999
vn 0.708177 0.004669 -0.706019
vn 0.999978 0.006589 -0.000000
vn 0.708178 0.004669 0.706019
vn 0.001729 0.000007 0.999999
vn -0.000000 -1.000000 0.000000
vn -0.000000 -0.707137 0.707076
vn -0.000000 -0.707132 0.707082
vn -0.000000 -1.000000 0.000000
vn 0.000000 -0.707141 -0.707073
vn 0.000000 -0.707141 -0.707073
vn -0.000000 0.000000 -1.000000
vn -0.000000 -0.000000 -1.000000
vn -0.000000 0.707141 -0.707073
vn -0.000000 0.707141 -0.707073
vn -0.000000 1.000000 0.000000
vn -0.000000 1.000000 -0.000000
vn 0.000000 0.707132 0.707081
vn 0.000000 0.707137 0.707076
vn -0.000000 -0.000000 1.000000
vn -0.000000 0.000000 1.000000
vn 1.000000 -0.000001 0.000000
vn 1.000000 0.000007 0.000003
vn 1.000000 0.000007 0.000003
vn 1.000000 -0.000001 0.000000
vn -1.000000 -0.000013 -0.000011
vn -1.000000 0.000001 -0.000001
vn -1.000000 0.000001 -0.000001
vn -1.000000 -0.000013 -0.000011
vn 1.000000 -0.000000 0.000000
vn 1.000000 -0.000000 0.000000
vn -1.000000 0.000000 0.000000
vn -1.000000 0.000000 0.000000
vn 1.000000 -0.000000 0.000000
vn 1.000000 -0.000000 0.000000
vn -1.000000 0.000000 0.000000
vn -1.000000 -0.000000 0.000000
vn 1.000000 -0.000001 0.000000
vn 1.000000 -0.000001 0.000000
vn -1.000000 0.000001 0.000000
vn -1.000000 0.000001 0.000000
vn 1.000000 -0.000000 0.000000
vn 1.000000 -0.000000 0.000000
vn -1.000000 0.000001 0.000000
vn -1.000000 0.000001 0.000000
vn 1.000000 -0.000008 0.000003
vn 1.000000 -0.000008 0.000003
vn -1.000000 0.000014 -0.000011
vn -1.000000 0.000014 -0.000011
vn 1.000000 -0.000000 0.000006
vn 1.000000 -0.000000 0.000006
vn -1.000000 0.000001 -0.000022
vn -1.000000 0.000001 -0.000022
s 1
g Pipe_Corner
usemtl initialShadingGroup
f 56/64/1 49/56/2 1/1/3 7/10/4
f 7/10/4 2/2/5 55/63/6 56/64/1
f 54/62/7 55/63/6 2/2/5 10/13/8
f 10/13/8 3/3/9 53/61/10 54/62/7
f 52/60/11 53/61/10 3/3/9 13/16/12
f 13/16/12 4/4/13 51/59/14 52/60/11
f 50/58/15 51/59/14 4/4/13 16/19/16
f 16/19/16 1/5/3 49/57/2 50/58/15
f 7/10/4 1/1/3 17/25/17 18/24/18
f 1/1/3 16/21/16 19/26/19 17/25/17
f 16/21/16 4/6/13 20/27/20 19/26/19
f 4/6/13 13/22/12 21/28/21 20/27/20
f 13/22/12 3/7/9 22/29/22 21/28/21
f 3/7/9 10/23/8 23/30/23 22/29/22
f 10/23/8 2/2/5 24/31/24 23/30/23
f 2/2/5 7/10/4 18/24/18 24/31/24
f 18/24/18 17/25/17 25/33/25 26/32/26
f 17/25/17 19/26/19 27/34/27 25/33/25
f 19/26/19 20/27/20 28/35/28 27/34/27
f 20/27/20 21/28/21 29/36/29 28/35/28
f 21/28/21 22/29/22 30/37/30 29/36/29
f 22/29/22 23/30/23 31/38/31 30/37/30
f 23/30/23 24/31/24 32/39/32 31/38/31
f 24/31/24 18/24/18 26/32/26 32/39/32
f 26/32/26 25/33/25 33/41/33 34/40/34
f 25/33/25 27/34/27 35/42/35 33/41/33
f 27/34/27 28/35/28 36/43/36 35/42/35
f 28/35/28 29/36/29 37/44/37 36/43/36
f 29/36/29 30/37/30 38/45/38 37/44/37
f 30/37/30 31/38/31 39/46/39 38/45/38
f 31/38/31 32/39/32 40/47/40 39/46/39
f 32/39/32 26/32/26 34/40/34 40/47/40
f 33/41/33 35/42/35 42/49/41 41/48/42
f 35/42/35 36/43/36 43/50/43 42/49/41
f 36/43/36 37/44/37 44/51/44 43/50/43
f 37/44/37 38/45/38 45/52/45 44/51/44
f 38/45/38 39/46/39 46/53/46 45/52/45
f 39/46/39 40/47/40 47/54/47 46/53/46
f 40/47/40 34/40/34 48/55/48 47/54/47
f 34/40/34 33/41/33 41/48/42 48/55/48
s 2
f 58/65/49 57/66/50 59/67/51 60/68/52
f 61/70/53 62/69/54 58/65/49 60/68/52
f 63/71/55 62/69/54 61/70/53 64/72/56
f 65/74/57 66/73/58 63/71/55 64/72/56
f 67/75/59 66/73/58 65/74/57 68/76/60
f 69/78/61 70/77/62 67/75/59 68/76/60
f 71/79/63 70/77/62 69/78/61 72/80/64
f 59/82/51 57/81/50 71/79/63 72/80/64
s 3
f 50/58/65 49/57/66 57/66/67 58/65/68
s 4
f 6/20/69 15/18/70 60/68/71 59/67/72
s 3
f 51/59/73 50/58/65 58/65/68 62/69/74
s 4
f 15/18/70 14/17/75 61/70/76 60/68/71
s 3
f 52/60/77 51/59/73 62/69/74 63/71/78
s 4
f 14/17/75 12/15/79 64/72/80 61/70/76
s 3
f 53/61/81 52/60/77 63/71/78 66/73/82
s 4
f 12/15/79 11/14/83 65/74/84 64/72/80
s 3
f 54/62/85 53/61/81 66/73/82 67/75/86
s 4
f 11/14/83 9/12/87 68/76/88 65/74/84
s 3
f 55/63/89 54/62/85 67/75/86 70/77/90
s 4
f 9/12/87 8/11/91 69/78/92 68/76/88
s 3
f 56/64/93 55/63/89 70/77/90 71/79/94
s 4
f 8/11/91 5/8/95 72/80/96 69/78/92
s 3
f 49/56/66 56/64/93 71/79/94 57/81/67
s 4
f 5/8/95 6/9/69 59/82/72 72/80/96
